<svg width="78" height="32" viewBox="0 0 78 32" fill="none" xmlns="http://www.w3.org/2000/svg">
<g clip-path="url(#clip0_1_1102)">
<path d="M5.36002 11.43H1.96002V12.39H5.36002V11.43Z" fill="#171412"/>
<path d="M5.56001 12.6H1.76001V11.23H5.57001V12.6H5.56001ZM2.16001 12.2H5.16001V11.64H2.16001V12.2Z" fill="#171412"/>
<path d="M5.61002 12.65H1.71002V11.19H5.62002V12.65H5.61002ZM2.21002 12.15H5.12002V11.69H2.21002V12.15Z" fill="#171412"/>
<path d="M5.81001 12.85H1.51001V10.98H5.82001V12.85H5.81001ZM1.91001 12.45H5.41001V11.39H1.91001V12.45ZM5.31001 12.35H2.00001V11.48H5.31001V12.35ZM2.41001 11.95H4.91001V11.89H2.41001V11.95Z" fill="#171412"/>
<path d="M77.44 16.54C77.54 14.72 76.54 13.02 74.9 12.22C70.64 9.79 65.85 8.44 60.95 8.28C60.44 8.26 59.93 8.13 59.48 7.89C58.65 7.46 57.81 7.01 57.01 6.58C55.63 5.84 54.21 5.08 52.78 4.41C47.19 1.8 41.11 0.449997 34.94 0.449997H34.4C31.57 0.449997 28.75 0.649997 25.95 1.02C20.51 1.86 15.29 3.76 10.58 6.62C10.19 6.84 9.75 6.99 9.31 7.05C8.03 7.24 6.73 7.43 5.48 7.61C4.05 7.82 2.58 8.03 1.13 8.25C0.520004 8.34 0.470004 8.45 0.470004 8.96C0.460004 12.43 0.450004 16.01 0.490004 19.59C0.430004 20.96 1.17 22.25 2.39 22.88C3.54 23.44 4.72 23.93 5.92 24.36C6.55 24.6 7.2 24.84 7.84 25.11C8.01 25.17 8.16 25.27 8.31 25.37C8.31 25.34 8.31 25.3 8.3 25.27C8.15 24.88 8.06 24.48 8.04 24.06L5.19 22.93C1.76 21.56 1.55 21.26 1.55 17.59V13.25L1.58 12.13V9.28L2.24 9.19C2.79 9.11 3.34 9.03 3.89 8.95C5.12 8.76 6.4 8.57 7.66 8.43C9.27 8.36 10.83 7.86 12.18 6.99C12.54 6.74 12.93 6.53 13.33 6.35C13.59 6.23 13.83 6.11 14.05 5.98C14.3 5.82 14.6 5.72 14.9 5.72C15.35 5.74 15.77 5.95 16.05 6.29C16.48 6.74 16.93 7.19 17.37 7.62C17.79 8.03 18.22 8.46 18.64 8.9C18.93 9.22 19.34 9.39 19.77 9.36C21.68 9.36 23.7 9.35 26.36 9.35H34.47V23.89H22.99C23.02 24.33 23 24.77 22.93 25.2C23.09 25.14 23.25 25.09 23.43 25.09C29.84 25.08 36.35 25.08 42.65 25.07C47.49 25.07 52.34 25.07 57.18 25.06C57.51 25.04 57.82 25.13 58.09 25.3H58.6V25.24C58.6 25.24 58.6 25.19 58.6 25.17C58.6 25.12 58.61 25.06 58.62 25.01C58.62 24.94 58.62 24.87 58.62 24.8C58.59 24.65 58.57 24.49 58.55 24.33C58.5 24.12 58.47 23.91 58.46 23.7C58.45 23.68 58.44 23.65 58.43 23.63H58.08L58.06 23.9H35.71V9.43L36.44 9.39H36.61C36.73 9.37 36.85 9.37 36.97 9.37C39.19 9.37 41.41 9.37 43.63 9.37C45.95 9.37 48.26 9.37 50.58 9.37C54.23 9.37 57.22 9.37 60.01 9.39C64.91 9.4 69.73 10.64 74.03 13C74.58 13.3 76.25 14.21 76.34 15.96C76.43 17.65 76.41 19.38 76.39 21.04C76.39 21.72 76.38 22.43 76.38 23.13V23.9H72.73C72.75 24.35 72.72 24.8 72.64 25.24C72.89 25.14 73.15 25.07 73.43 25.08H73.55C74.05 25.1 74.58 25.1 75.12 25.1C75.66 25.1 76.16 25.1 76.73 25.08C77.45 25.06 77.45 25.01 77.45 24.38C77.45 23.58 77.45 22.79 77.45 21.99C77.44 20.21 77.43 18.37 77.48 16.55L77.44 16.54ZM34.47 8.08L33.85 8.2L33.76 8.22C33.65 8.25 33.54 8.27 33.42 8.27H26.99C24.41 8.27 22.28 8.27 20.28 8.26C19.84 8.24 19.43 8.07 19.11 7.78C18.62 7.34 18.15 6.88 17.65 6.39C17.46 6.2 17.26 6.01 17.05 5.81L16.2 4.98L17.31 4.54C22.34 2.54 27.71 1.52 33.12 1.53H34.46V8.08H34.47ZM35.67 8.24V1.63H36.45C41.92 1.74 52.82 4.6 55 6.94L56.2 8.23H35.67V8.24Z" fill="#171412"/>
<path d="M8.59 25.81L8.18 25.55C8.03 25.44 7.89 25.37 7.76 25.32C7.13 25.06 6.49 24.82 5.86 24.58C4.63 24.14 3.44 23.64 2.28 23.08C0.990003 22.41 0.200003 21.05 0.270003 19.6C0.230003 16.04 0.240003 12.47 0.250003 9.01C0.250003 8.38 0.370003 8.18 1.08 8.07C2.53 7.85 4.01 7.63 5.43 7.43L6.05 7.34C7.11 7.19 8.19 7.03 9.26 6.87C9.69 6.81 10.09 6.67 10.47 6.46C15.23 3.57 20.42 1.67 25.92 0.82C28.72 0.44 31.58 0.25 34.4 0.25H34.94C41.09 0.25 47.28 1.63 52.85 4.23C54.24 4.88 55.59 5.6 57.09 6.4C57.9 6.83 58.73 7.28 59.56 7.71C59.99 7.93 60.46 8.05 60.95 8.08C65.86 8.24 70.72 9.61 74.99 12.05C76.69 12.88 77.73 14.65 77.63 16.55C77.58 18.39 77.59 20.3 77.6 21.98C77.6 22.78 77.6 23.57 77.6 24.37C77.6 25.1 77.53 25.25 76.68 25.27C75.51 25.3 74.47 25.3 73.49 25.27H73.38C73.15 25.26 72.93 25.3 72.67 25.41L72.33 25.55L72.4 25.18C72.48 24.76 72.51 24.32 72.49 23.88V23.67H76.14V23.1C76.14 22.49 76.14 21.87 76.15 21.27V21C76.17 19.32 76.19 17.61 76.1 15.93C76.01 14.29 74.42 13.42 73.89 13.13C69.63 10.8 64.82 9.56 59.96 9.55C57.18 9.53 54.18 9.53 50.53 9.53C48.21 9.53 45.9 9.53 43.58 9.53C41.36 9.53 39.14 9.53 36.92 9.53C36.8 9.53 36.69 9.53 36.57 9.54L35.86 9.58V23.66H57.82L57.84 23.39H58.51L58.57 23.5L58.42 23.65L58.59 23.55L58.62 23.64C58.64 23.87 58.66 24.07 58.71 24.24C58.74 24.42 58.76 24.58 58.79 24.73V24.85C58.79 24.85 58.79 24.92 58.8 24.95C58.8 25.01 58.8 25.04 58.8 25.07C58.8 25.09 58.8 25.11 58.8 25.14V25.47H58.03L57.98 25.44C57.73 25.28 57.47 25.21 57.19 25.23C52.33 25.23 47.49 25.24 42.64 25.24H42.42C36.19 25.24 29.75 25.24 23.42 25.26C23.26 25.26 23.11 25.31 22.99 25.36L22.67 25.48L22.73 25.14C22.8 24.73 22.82 24.3 22.79 23.87V23.66H34.27V9.52H26.36C23.71 9.52 21.68 9.52 19.77 9.53C19.29 9.56 18.82 9.37 18.49 9.01C18.11 8.61 17.72 8.22 17.33 7.84L17.23 7.74C16.79 7.31 16.33 6.85 15.9 6.4C15.64 6.09 15.28 5.91 14.89 5.89C14.64 5.89 14.38 5.98 14.16 6.12C13.93 6.26 13.69 6.38 13.43 6.5C13.03 6.68 12.65 6.89 12.3 7.13C10.91 8.02 9.31 8.53 7.67 8.6C6.42 8.74 5.15 8.93 3.92 9.12L1.78 9.44V12.11L1.75 13.24V17.57C1.75 21.15 1.91 21.39 5.26 22.72L8.11 23.85L8.04 24.02H8.23C8.25 24.43 8.33 24.81 8.48 25.17L8.5 25.27L8.6 25.76L8.59 25.81ZM58.14 25.11H58.4C58.4 25.11 58.4 25.08 58.4 25.06V25C58.4 25 58.4 24.94 58.4 24.89V24.81C58.37 24.68 58.35 24.51 58.32 24.35C58.28 24.2 58.25 24.02 58.24 23.82H58.23L58.21 24.09H35.47V9.23L36.56 9.17C36.69 9.17 36.8 9.15 36.93 9.15C39.15 9.15 41.37 9.15 43.59 9.15C45.91 9.15 48.22 9.15 50.54 9.15C54.19 9.15 57.19 9.15 59.97 9.17C64.89 9.18 69.77 10.44 74.08 12.8C74.65 13.11 76.4 14.07 76.5 15.93C76.59 17.62 76.57 19.34 76.55 21.01V21.3C76.55 21.9 76.53 22.51 76.53 23.12V24.09H72.88C72.88 24.37 72.87 24.66 72.83 24.94C73.02 24.89 73.2 24.87 73.38 24.88H73.49C74.48 24.91 75.5 24.91 76.67 24.88C77.0167 24.8733 77.19 24.7067 77.19 24.38C77.19 23.58 77.19 22.79 77.19 21.99C77.18 20.3 77.17 18.39 77.22 16.54C77.31 14.79 76.36 13.17 74.79 12.41C70.56 10 65.77 8.64 60.92 8.49C60.37 8.47 59.85 8.33 59.36 8.08C58.53 7.65 57.69 7.2 56.88 6.77C55.39 5.97 54.05 5.25 52.66 4.61C47.14 2.03 41.01 0.67 34.92 0.67H34.38C31.57 0.67 28.74 0.87 25.95 1.24C20.51 2.08 15.36 3.96 10.66 6.81C10.24 7.05 9.78 7.2 9.31 7.27C8.24 7.43 7.16 7.59 6.1 7.74L5.48 7.83C4.05 8.04 2.58 8.25 1.13 8.47C0.640003 8.54 0.640003 8.55 0.640003 8.99C0.630003 12.48 0.620003 16.05 0.660003 19.62C0.600003 20.92 1.3 22.14 2.45 22.73C3.59 23.28 4.77 23.77 5.96 24.2C6.61 24.45 7.26 24.69 7.89 24.95C7.91 24.95 7.93 24.97 7.95 24.97C7.89 24.73 7.84 24.48 7.82 24.23L5.09 23.15C1.57 21.74 1.33 21.38 1.33 17.62V13.28L1.36 12.16V9.15L3.84 8.79C5.07 8.6 6.35 8.41 7.62 8.27C9.2 8.2 10.73 7.71 12.06 6.86C12.43 6.61 12.83 6.39 13.24 6.2C13.49 6.08 13.73 5.97 13.93 5.84C14.21 5.66 14.54 5.56 14.88 5.55C15.4 5.57 15.87 5.81 16.19 6.19C16.61 6.63 17.06 7.08 17.5 7.51L17.6 7.61C17.99 7.99 18.39 8.39 18.77 8.79C19.02 9.07 19.38 9.21 19.74 9.19C21.66 9.18 23.69 9.18 26.34 9.18H34.65V24.12H23.18C23.18 24.4 23.18 24.68 23.15 24.95C23.23 24.93 23.32 24.92 23.41 24.92C29.74 24.91 36.18 24.91 42.41 24.9H42.63C47.47 24.9 52.32 24.9 57.16 24.89C57.49 24.87 57.82 24.95 58.13 25.13L58.14 25.11ZM27.01 8.48C24.43 8.48 22.3 8.48 20.3 8.48C19.81 8.46 19.35 8.27 18.99 7.95C18.56 7.56 18.11 7.13 17.53 6.55C17.34 6.36 17.14 6.17 16.93 5.97L15.85 4.92L17.25 4.37C22.29 2.37 27.6 1.35 33.02 1.35H34.67V8.26L33.81 8.43C33.69 8.46 33.56 8.48 33.43 8.48H27H27.01ZM16.58 5.05L17.21 5.66C17.42 5.86 17.62 6.06 17.81 6.24C18.39 6.81 18.84 7.24 19.26 7.63C19.55 7.89 19.92 8.04 20.31 8.06C22.3 8.06 24.43 8.06 27.01 8.06H33.44C33.53 8.06 33.63 8.04 33.72 8.02L34.28 7.91V1.74H33.14C33.14 1.74 33.06 1.74 33.02 1.74C27.65 1.74 22.39 2.75 17.4 4.73L16.58 5.05ZM56.66 8.44H35.47V1.43L36.46 1.45C41.96 1.55 52.95 4.45 55.15 6.81L56.66 8.44ZM35.87 8.04H55.75L54.86 7.08C52.71 4.77 41.89 1.94 36.45 1.84H35.87V8.03V8.04Z" fill="#171412"/>
<path d="M36.46 1.39L35.42 1.37V8.47999H56.78L55.19 6.77C52.98 4.39 41.97 1.49 36.46 1.39ZM35.92 7.99V1.88H36.45C41.88 1.99 52.68 4.81 54.82 7.11L55.63 7.98H35.92V7.99Z" fill="#171412"/>
<path d="M57.24 8.69H35.22V1.17L36.46 1.19C42.01 1.29 53.1 4.23 55.33 6.63L57.23 8.68L57.24 8.69ZM35.62 8.29H56.32L55.04 6.91C52.86 4.56 41.93 1.69 36.45 1.59L35.62 1.57V8.28V8.29ZM56.09 8.19H35.72V1.68H36.45C41.91 1.79 52.79 4.64 54.97 6.98L56.09 8.19ZM36.12 7.79H55.17L54.67 7.25C52.55 4.98 41.84 2.19 36.44 2.09H36.11V7.78L36.12 7.79Z" fill="#171412"/>
<path d="M17.49 6.56999C18.07 7.14999 18.52 7.57999 18.95 7.96999C19.32 8.29999 19.79 8.49999 20.29 8.50999C22.28 8.50999 24.41 8.50999 27 8.50999H33.43C33.56 8.50999 33.7 8.48999 33.82 8.45999L34.72 8.27999V1.29999H33.13L33.01 1.28999C27.58 1.28999 22.27 2.30999 17.22 4.30999L15.75 4.88999L16.88 5.98999C17.09 6.18999 17.29 6.37999 17.48 6.56999H17.49ZM17.42 4.76999C22.44 2.76999 27.74 1.78999 33.14 1.77999H34.23V7.86999L33.71 7.97999C33.62 7.99999 33.53 8.01999 33.44 8.01999H27.01C24.43 8.01999 22.3 8.01999 20.31 8.01999C19.93 8.00999 19.57 7.85999 19.29 7.60999C18.87 7.21999 18.42 6.79999 17.84 6.21999C17.65 6.02999 17.45 5.83999 17.24 5.63999L16.66 5.07999L17.41 4.78999L17.42 4.76999Z" fill="#171412"/>
<path d="M27.01 8.73C24.43 8.73 22.3 8.73 20.3 8.73C19.75 8.71 19.23 8.5 18.83 8.13C18.4 7.74 17.95 7.3 17.36 6.72C17.17 6.53 16.97 6.34 16.77 6.14L15.41 4.82L17.17 4.13C22.24 2.11 27.57 1.09 33.03 1.09L34.93 1.11V8.46L33.87 8.67C33.75 8.7 33.59 8.73 33.45 8.73H27.02H27.01ZM16.13 4.96L17.04 5.85C17.25 6.05 17.45 6.24 17.64 6.43C18.22 7.01 18.67 7.44 19.1 7.83C19.43 8.13 19.86 8.31 20.31 8.32C22.3 8.32 24.43 8.32 27.01 8.32H33.44C33.55 8.32 33.67 8.3 33.78 8.27L34.53 8.12V1.5H33.03C27.63 1.49 22.34 2.5 17.32 4.5L16.14 4.96H16.13ZM27.01 8.23C24.43 8.23 22.3 8.23 20.31 8.23C19.88 8.21 19.47 8.05 19.16 7.76C18.74 7.37 18.29 6.94 17.7 6.37C17.51 6.18 17.31 5.99 17.1 5.79L16.3 5.01L17.34 4.6C22.32 2.62 27.63 1.61 33.13 1.6H34.42V8.06L33.74 8.2C33.65 8.23 33.54 8.24 33.43 8.24H27L27.01 8.23ZM17.03 5.14L17.38 5.48C17.59 5.68 17.79 5.88 17.98 6.07C18.56 6.64 19 7.07 19.42 7.45C19.66 7.67 19.98 7.8 20.31 7.81C22.29 7.81 24.42 7.81 27 7.81H33.43C33.5 7.81 33.58 7.8 33.65 7.78L34.02 7.7V1.99H33.13C27.68 1.99 22.42 3 17.49 4.96L17.03 5.14Z" fill="#171412"/>
<path d="M26.36 9.1C23.7 9.1 21.68 9.1 19.75 9.11C19.38 9.13 19.06 9 18.82 8.73C18.42 8.31 18.01 7.9 17.61 7.51L17.55 7.45C17.11 7.02 16.66 6.57 16.24 6.14C15.91 5.74 15.42 5.5 14.89 5.48C14.54 5.48 14.2 5.59 13.92 5.78C13.71 5.91 13.48 6.02 13.23 6.14C12.82 6.33 12.42 6.55 12.05 6.8C10.73 7.64 9.21002 8.13 7.63002 8.2C6.40002 8.34 5.16002 8.53 3.96002 8.71L1.33002 9.1V12.41L1.30002 13.03V17.62C1.30002 21.37 1.58002 21.79 5.09002 23.19L8.05002 24.37C8.03002 24.21 8.03002 24.04 8.03002 23.87C7.97002 23.83 7.90002 23.79 7.84002 23.74L5.27002 22.72C1.92002 21.38 1.79002 21.19 1.79002 17.61V13.52L1.82002 11.9V9.52L4.03002 9.19C5.23002 9.01 6.46002 8.82 7.67002 8.69C9.32002 8.62 10.92 8.11 12.32 7.21C12.67 6.97 13.04 6.76 13.44 6.58C13.7 6.45 13.95 6.33 14.18 6.2C14.39 6.06 14.64 5.98 14.88 5.98C15.26 6 15.61 6.17 15.86 6.47C16.29 6.92 16.75 7.37 17.19 7.81L17.25 7.87C17.65 8.26 18.06 8.67 18.45 9.08C18.79 9.46 19.27 9.66 19.76 9.62C21.67 9.61 23.69 9.61 26.35 9.61H34.21V23.65H22.95C22.97 23.82 22.98 23.98 22.98 24.15H34.7V9.11H26.34L26.36 9.1Z" fill="#171412"/>
<path d="M8.29003 24.67L5.01003 23.37C1.42003 21.94 1.09003 21.45 1.09003 17.61V13.02L1.12003 12.39V8.92L3.92003 8.51C5.12003 8.33 6.36003 8.14 7.60003 8C9.15003 7.93 10.64 7.46 11.93 6.63C12.3 6.37 12.71 6.15 13.14 5.96C13.39 5.84 13.61 5.73 13.81 5.61C14.12 5.41 14.5 5.29 14.88 5.28C15.48 5.3 16.02 5.57 16.39 6.01C16.79 6.43 17.25 6.88 17.68 7.31L17.74 7.37C18.14 7.77 18.56 8.18 18.96 8.6C19.17 8.83 19.43 8.93 19.73 8.92C21.66 8.91 23.69 8.9 26.35 8.9H34.91V24.34H22.79V24.14C22.79 23.98 22.77 23.82 22.75 23.66L22.73 23.44H34.01V9.8H26.35C23.7 9.8 21.67 9.8 19.76 9.81C19.22 9.85 18.68 9.63 18.3 9.2C17.92 8.8 17.52 8.41 17.13 8.02L17.05 7.95C16.61 7.51 16.15 7.06 15.72 6.61C15.5 6.34 15.2 6.19 14.88 6.18C14.69 6.18 14.48 6.25 14.3 6.37C14.05 6.52 13.79 6.65 13.54 6.77C13.15 6.94 12.78 7.15 12.44 7.38C11.01 8.3 9.37003 8.82 7.68003 8.89C6.49003 9.03 5.26003 9.21 4.07003 9.39L2.03003 9.69V11.9L2.00003 13.52V17.61C2.00003 21.09 2.09003 21.23 5.35003 22.53L7.70003 23.46L7.72003 23.39L7.96003 23.57C7.96003 23.57 8.04003 23.62 8.07003 23.65L8.22003 23.75V23.86C8.22003 24.02 8.22003 24.18 8.24003 24.33L8.28003 24.66L8.29003 24.67ZM1.53003 9.26V12.4L1.50003 13.03V17.61C1.50003 21.27 1.74003 21.63 5.17003 23L7.84003 24.06C7.84003 24.06 7.84003 24 7.84003 23.97C7.81003 23.95 7.79003 23.93 7.76003 23.92L5.21003 22.91C1.77003 21.54 1.60003 21.29 1.60003 17.62V13.53L1.63003 11.91V9.36L4.01003 9.01C5.20003 8.83 6.44003 8.64 7.65003 8.51C9.28003 8.44 10.85 7.94 12.22 7.06C12.58 6.82 12.96 6.6 13.37 6.42C13.61 6.31 13.86 6.18 14.09 6.05C14.33 5.9 14.61 5.81 14.89 5.8C15.34 5.82 15.74 6.02 16.03 6.37C16.45 6.81 16.91 7.26 17.35 7.69L17.41 7.75C17.82 8.15 18.23 8.56 18.61 8.96C18.92 9.3 19.34 9.47 19.76 9.44C21.68 9.43 23.71 9.42 26.36 9.42H34.42V23.86H23.18C23.18 23.86 23.18 23.93 23.18 23.96H34.51V9.32H26.35C23.7 9.32 21.67 9.32 19.75 9.33C19.34 9.35 18.95 9.2 18.67 8.88C18.28 8.47 17.86 8.06 17.46 7.67L17.4 7.61C16.96 7.18 16.5 6.73 16.09 6.29C15.79 5.93 15.35 5.71 14.88 5.69C14.58 5.69 14.28 5.79 14.02 5.96C13.8 6.09 13.57 6.2 13.33 6.32C12.9 6.51 12.52 6.73 12.16 6.97C10.81 7.84 9.25003 8.33 7.64003 8.4C6.42003 8.54 5.19003 8.72 3.99003 8.9L1.53003 9.26Z" fill="#171412"/>
<path d="M76.57 15.92C76.47 14.03 74.71 13.07 74.13 12.75C69.81 10.38 64.92 9.12 59.99 9.11C57.21 9.09 54.21 9.09 50.56 9.09C48.24 9.09 45.93 9.09 43.61 9.09C41.39 9.09 39.17 9.09 36.95 9.09C36.82 9.09 36.7 9.09 36.57 9.11L35.44 9.17V24.13H58.27L58.3 23.61H57.8V23.63H35.94V9.65L36.61 9.61C36.73 9.61 36.84 9.6 36.95 9.6C39.17 9.6 41.39 9.6 43.61 9.6C45.93 9.6 48.24 9.6 50.56 9.6C54.21 9.6 57.2 9.6 59.99 9.62C64.83 9.63 69.64 10.87 73.89 13.2C74.41 13.48 75.99 14.34 76.07 15.95C76.16 17.63 76.14 19.34 76.12 21.02V21.29C76.12 21.89 76.1 22.51 76.1 23.12V23.64H72.69C72.7 23.81 72.71 23.97 72.71 24.14H76.6V23.12C76.6 22.51 76.6 21.9 76.61 21.3V21.01C76.63 19.35 76.65 17.62 76.56 15.93L76.57 15.92Z" fill="#171412"/>
<path d="M58.46 24.34H35.24V8.98999L36.56 8.91999C36.69 8.91999 36.81 8.89999 36.95 8.89999C39.17 8.89999 41.39 8.89999 43.61 8.89999C45.93 8.89999 48.24 8.89999 50.56 8.89999C54.21 8.89999 57.21 8.89999 59.99 8.91999C64.95 8.92999 69.87 10.2 74.22 12.58C74.82 12.91 76.66 13.91 76.76 15.91C76.85 17.61 76.83 19.34 76.82 21V21.38C76.82 21.95 76.8 22.53 76.8 23.11V24.33H72.51V24.13C72.51 23.97 72.51 23.81 72.49 23.65L72.47 23.43H75.9V23.11C75.9 22.53 75.9 21.94 75.91 21.37V21.01C75.93 19.34 75.95 17.63 75.86 15.95C75.78 14.45 74.28 13.63 73.78 13.36C69.56 11.05 64.78 9.81999 59.97 9.80999C57.19 9.78999 54.19 9.78999 50.54 9.78999C48.22 9.78999 45.91 9.78999 43.59 9.78999C41.37 9.78999 39.15 9.78999 36.93 9.78999C36.82 9.78999 36.72 9.78999 36.62 9.79999L36.12 9.82999V23.42L58.5 23.4L58.45 24.32L58.46 24.34ZM35.64 23.94H58.09V23.82L35.74 23.84V9.46999L36.59 9.42999C36.72 9.42999 36.83 9.40999 36.94 9.40999C39.16 9.40999 41.38 9.40999 43.6 9.40999C45.92 9.40999 48.23 9.40999 50.55 9.40999C54.2 9.40999 57.19 9.40999 59.98 9.42999C64.86 9.43999 69.7 10.69 73.98 13.03C74.52 13.33 76.18 14.23 76.26 15.95C76.35 17.63 76.33 19.36 76.31 21.03V21.39C76.31 21.96 76.29 22.55 76.29 23.12V23.84H72.89C72.89 23.84 72.89 23.91 72.89 23.94H76.38V23.12C76.38 22.54 76.38 21.96 76.39 21.39V21.01C76.41 19.35 76.43 17.63 76.34 15.94C76.25 14.16 74.56 13.24 74 12.94C69.71 10.59 64.85 9.33999 59.96 9.31999C57.18 9.29999 54.18 9.29999 50.53 9.29999C48.21 9.29999 45.9 9.29999 43.58 9.29999C41.36 9.29999 39.14 9.29999 36.92 9.29999C36.8 9.29999 36.68 9.29999 36.56 9.31999L35.61 9.36999V23.94H35.64Z" fill="#171412"/>
<path d="M55.69 25.31H58.47C58.12 24.98 57.67 24.78 57.18 24.82C52.34 24.82 47.49 24.83 42.65 24.83H42.43C36.2 24.83 29.76 24.83 23.43 24.85C23.27 24.85 23.11 24.89 22.96 24.94C22.94 25.13 22.91 25.31 22.87 25.49C23.05 25.41 23.23 25.35 23.43 25.35C29.76 25.34 36.2 25.34 42.43 25.33H42.65C46.99 25.33 51.34 25.33 55.69 25.33V25.31Z" fill="#171412"/>
<path d="M22.59 25.83L22.67 25.44C22.71 25.26 22.74 25.09 22.76 24.9V24.77L22.9 24.73C23.04 24.69 23.22 24.63 23.42 24.63C29.68 24.62 36.04 24.62 42.21 24.61H42.65C47.49 24.61 52.34 24.61 57.18 24.6C57.68 24.56 58.19 24.75 58.61 25.14L58.98 25.49H55.69C51.33 25.51 46.99 25.51 42.65 25.51H42.21C36.05 25.51 29.69 25.51 23.43 25.53C23.29 25.53 23.13 25.57 22.95 25.65L22.59 25.82V25.83ZM23.14 25.09C23.14 25.09 23.14 25.15 23.13 25.19C23.23 25.17 23.33 25.15 23.43 25.15C29.69 25.14 36.05 25.14 42.21 25.13H42.65C46.93 25.13 51.2 25.13 55.49 25.13L55.69 25.12H57.8C57.62 25.05 57.42 25.01 57.2 25.03C52.34 25.03 47.5 25.04 42.65 25.04H42.21C36.05 25.04 29.69 25.04 23.43 25.06C23.33 25.06 23.23 25.08 23.15 25.1L23.14 25.09Z" fill="#171412"/>
<path d="M77.69 16.55C77.79 14.63 76.74 12.84 75.03 12C70.75 9.56 65.89 8.18 60.97 8.03C60.49 8.01 60.03 7.89 59.6 7.67C58.77 7.25 57.94 6.8 57.13 6.36C55.64 5.56 54.28 4.84 52.89 4.19C47.3 1.58 41.1 0.199997 34.94 0.199997H34.4C31.57 0.199997 28.72 0.399997 25.91 0.769997C20.41 1.62 15.21 3.52 10.45 6.4C10.08 6.61 9.68002 6.75 9.26002 6.8C8.19002 6.96 7.10002 7.12 6.03002 7.28L5.43002 7.37C4.00002 7.58 2.53002 7.79 1.08002 8.01C0.380017 8.12 0.210017 8.31 0.210017 9C0.210017 12.46 0.190017 16.03 0.230017 19.59C0.160017 21.06 0.960017 22.44 2.27002 23.12C3.42002 23.68 4.62002 24.18 5.84002 24.61C6.47002 24.85 7.11002 25.09 7.75002 25.35C8.01002 25.45 8.22002 25.62 8.41002 25.81C8.36002 25.65 8.34002 25.48 8.31002 25.31C8.27002 25.21 8.24002 25.12 8.21002 25.02C8.12002 24.97 8.03002 24.92 7.94002 24.89C7.30002 24.63 6.65002 24.38 6.01002 24.14C4.82002 23.72 3.64002 23.22 2.51002 22.67C1.38002 22.09 0.690017 20.89 0.750017 19.6C0.710017 16.03 0.720017 12.46 0.730017 8.97C0.730017 8.70333 0.880017 8.54666 1.18002 8.5C2.63002 8.28 4.10002 8.06 5.53002 7.86L6.13002 7.77C7.20002 7.61 8.28002 7.46 9.36002 7.29C9.84002 7.22 10.3 7.07 10.73 6.82C15.43 3.97 20.57 2.09 26.01 1.25C28.79 0.879997 31.62 0.689997 34.43 0.679997H34.97C41.05 0.679997 47.18 2.04 52.69 4.62C54.07 5.27 55.42 5.98 56.9 6.78C57.71 7.22 58.55 7.67 59.38 8.09C59.87 8.34 60.4 8.48 60.96 8.5C65.8 8.66 70.59 10.01 74.81 12.42C76.36 13.18 77.3 14.78 77.21 16.51C77.16 18.36 77.17 20.27 77.18 21.96C77.18 22.76 77.18 23.55 77.18 24.35C77.18 24.52 77.18 24.72 77.16 24.75C77.1 24.79 76.81 24.79 76.7 24.8C75.54 24.83 74.51 24.83 73.52 24.8H73.41C73.15 24.79 72.9 24.85 72.66 24.93C72.63 25.13 72.6 25.32 72.55 25.51C72.8 25.37 73.09 25.29 73.4 25.3H73.51C74.49 25.33 75.53 25.33 76.71 25.3C77.58 25.28 77.67 25.1 77.67 24.35C77.67 23.55 77.67 22.76 77.67 21.96C77.66 20.28 77.65 18.37 77.7 16.53L77.69 16.55Z" fill="#171412"/>
<path d="M8.26001 25.96C8.07001 25.76 7.87001 25.63 7.67001 25.55C7.04001 25.29 6.41001 25.05 5.80001 24.82C4.55001 24.37 3.34001 23.87 2.18001 23.31C0.800012 22.59 -0.0499875 21.13 0.0300125 19.59C-0.00998752 16.06 1.24783e-05 12.49 1.24783e-05 9.04C1.24783e-05 8.21 0.250012 7.94 1.04001 7.81C2.49001 7.59 3.97001 7.37 5.40001 7.17L6.24001 7.05C7.23001 6.91 8.24001 6.76 9.23001 6.61C9.63001 6.55 10 6.43 10.35 6.23C15.13 3.34 20.35 1.43 25.88 0.58C28.7 0.2 31.57 0 34.4 0H34.94C41.12 0 47.35 1.39 52.96 4.01C54.37 4.67 55.72 5.39 57.21 6.19C58.02 6.62 58.85 7.07 59.68 7.5C60.08 7.7 60.52 7.82 60.97 7.84C65.92 8 70.82 9.38 75.12 11.84C76.9 12.71 77.99 14.57 77.89 16.57C77.84 18.41 77.85 20.31 77.87 21.99C77.87 22.79 77.87 23.58 77.87 24.38C77.87 25.22 77.7 25.5 76.71 25.53C75.46 25.56 74.44 25.56 73.5 25.53H73.39C73.12 25.52 72.87 25.58 72.64 25.72L72.23 25.95L72.34 25.5C72.39 25.31 72.42 25.13 72.44 24.94L72.46 24.82L72.57 24.78C72.88 24.67 73.13 24.63 73.4 24.64H73.5C74.43 24.67 75.44 24.67 76.67 24.64C76.8 24.64 76.89 24.64 76.95 24.63C76.95 24.56 76.95 24.46 76.95 24.39C76.95 23.59 76.95 22.8 76.95 22.01C76.94 20.32 76.93 18.42 76.98 16.55C77.07 14.9 76.17 13.37 74.69 12.65C70.49 10.25 65.73 8.91 60.92 8.75C60.34 8.72 59.78 8.58 59.26 8.31C58.42 7.88 57.58 7.43 56.78 7C55.29 6.2 53.95 5.49 52.58 4.84C47.09 2.28 41 0.92 34.94 0.92H34.4C31.6 0.92 28.78 1.12 26.01 1.49C20.61 2.33 15.49 4.19 10.81 7.03C10.36 7.29 9.87001 7.45 9.37001 7.53C8.31001 7.69 7.24001 7.85 6.18001 8L5.54001 8.09C4.11001 8.3 2.64001 8.51 1.19001 8.73C1.07001 8.75 0.940012 8.77 0.910012 8.79C0.910012 8.79 0.910012 8.9 0.910012 9V9.06C0.900012 12.51 0.890012 16.09 0.930012 19.63C0.870012 20.84 1.52001 21.98 2.59001 22.52C3.71001 23.06 4.89001 23.55 6.07001 23.98C6.72001 24.23 7.37001 24.47 8.01001 24.73C8.11001 24.77 8.20001 24.82 8.30001 24.87L8.37001 24.91L8.39001 24.99C8.42001 25.08 8.45001 25.17 8.49001 25.26L8.52001 25.39C8.54001 25.52 8.57001 25.66 8.60001 25.78L8.26001 25.97V25.96ZM34.4 0.4C31.58 0.4 28.73 0.6 25.94 0.97C20.47 1.82 15.29 3.7 10.56 6.57C10.16 6.8 9.74001 6.94 9.30001 7C8.31001 7.15 7.30001 7.3 6.31001 7.44L5.47001 7.56C4.04001 7.77 2.57001 7.98 1.12001 8.2C0.510013 8.29 0.420012 8.4 0.420012 9C0.410012 12.48 0.400012 16.04 0.440012 19.58C0.380012 20.98 1.13001 22.29 2.37001 22.93C3.51001 23.48 4.71001 23.98 5.91001 24.41C6.57001 24.66 7.20001 24.9 7.83001 25.16C7.92001 25.19 8.01001 25.24 8.09001 25.29C8.07001 25.25 8.06001 25.2 8.04001 25.15C7.98001 25.12 7.93001 25.09 7.87001 25.07C7.23001 24.81 6.58001 24.56 5.94001 24.32C4.75001 23.9 3.56001 23.4 2.42001 22.85C1.21001 22.23 0.480012 20.95 0.540012 19.59C0.500012 16.05 0.510012 12.48 0.520012 9.03V8.97C0.520012 8.45 0.620013 8.39 1.14001 8.31C2.59001 8.09 4.06001 7.87 5.49001 7.67L6.09001 7.58C7.18001 7.42 8.26001 7.26 9.32001 7.1C9.78001 7.04 10.21 6.89 10.62 6.66C15.33 3.8 20.49 1.92 25.95 1.07C28.74 0.7 31.58 0.5 34.4 0.5H34.94C41.05 0.5 47.21 1.87 52.75 4.46C54.13 5.11 55.48 5.82 56.97 6.63C57.78 7.07 58.61 7.51 59.45 7.94C59.92 8.18 60.42 8.31 60.95 8.33C65.82 8.49 70.64 9.85 74.89 12.27C76.5 13.06 77.49 14.74 77.39 16.54C77.34 18.39 77.35 20.3 77.36 21.98C77.36 22.78 77.36 23.57 77.36 24.37C77.36 24.7 77.36 24.79 77.32 24.86L77.3 24.91L77.25 24.94C77.18 24.98 77.08 25.01 76.69 25.02C75.44 25.05 74.43 25.05 73.5 25.02H73.4C73.22 25.02 73.03 25.04 72.83 25.1C72.83 25.13 72.83 25.16 72.81 25.19C73 25.13 73.2 25.11 73.39 25.11H73.49C74.43 25.14 75.44 25.14 76.68 25.11C77.45 25.09 77.45 24.99 77.45 24.36C77.45 23.56 77.45 22.77 77.45 21.97C77.44 20.29 77.43 18.39 77.48 16.53C77.58 14.68 76.58 12.97 74.93 12.17C70.67 9.74 65.84 8.37 60.95 8.22C60.44 8.2 59.95 8.07 59.5 7.84C58.67 7.41 57.83 6.97 57.02 6.53C55.54 5.73 54.19 5.02 52.79 4.36C47.24 1.77 41.07 0.4 34.94 0.4H34.4Z" fill="#171412"/>
<path d="M44.36 11.43H40.96V12.39H44.36V11.43Z" fill="#171412"/>
<path d="M44.56 12.6H40.75V11.23H44.56V12.6ZM41.16 12.2H44.16V11.64H41.16V12.2Z" fill="#171412"/>
<path d="M44.61 12.65H40.7V11.19H44.61V12.65ZM41.21 12.15H44.12V11.69H41.21V12.15Z" fill="#171412"/>
<path d="M44.81 12.85H40.5V10.98H44.81V12.85ZM40.91 12.45H44.41V11.39H40.91V12.45ZM44.31 12.35H41V11.48H44.31V12.35ZM41.41 11.95H43.91V11.89H41.41V11.95Z" fill="#171412"/>
<path d="M15.52 30.88C11.36 30.88 7.97 27.49 7.97 23.33C7.97 19.17 11.36 15.78 15.52 15.78C19.68 15.78 23.07 19.17 23.07 23.33C23.07 27.49 19.68 30.88 15.52 30.88ZM15.52 17.56C12.34 17.56 9.75 20.15 9.75 23.33C9.75 26.51 12.34 29.1 15.52 29.1C18.7 29.1 21.29 26.51 21.29 23.33C21.29 20.15 18.7 17.56 15.52 17.56Z" fill="#171412"/>
<path d="M15.52 31.08C11.25 31.08 7.76999 27.6 7.76999 23.33C7.76999 19.06 11.25 15.58 15.52 15.58C19.79 15.58 23.27 19.06 23.27 23.33C23.27 27.6 19.79 31.08 15.52 31.08ZM15.52 15.99C11.47 15.99 8.16999 19.28 8.16999 23.34C8.16999 27.4 11.46 30.69 15.52 30.69C19.58 30.69 22.87 27.4 22.87 23.34C22.87 19.28 19.58 15.99 15.52 15.99ZM15.52 29.31C12.23 29.31 9.54999 26.63 9.54999 23.34C9.54999 20.05 12.23 17.37 15.52 17.37C18.81 17.37 21.49 20.05 21.49 23.34C21.49 26.63 18.81 29.31 15.52 29.31ZM15.52 17.76C12.45 17.76 9.94999 20.26 9.94999 23.33C9.94999 26.4 12.45 28.9 15.52 28.9C18.59 28.9 21.09 26.4 21.09 23.33C21.09 20.26 18.59 17.76 15.52 17.76Z" fill="#171412"/>
<path d="M65.52 30.88C61.36 30.88 57.97 27.49 57.97 23.33C57.97 19.17 61.36 15.78 65.52 15.78C69.68 15.78 73.07 19.17 73.07 23.33C73.07 27.49 69.68 30.88 65.52 30.88ZM65.52 17.56C62.34 17.56 59.75 20.15 59.75 23.33C59.75 26.51 62.34 29.1 65.52 29.1C68.7 29.1 71.29 26.51 71.29 23.33C71.29 20.15 68.7 17.56 65.52 17.56Z" fill="#171412"/>
<path d="M65.52 31.08C61.25 31.08 57.77 27.6 57.77 23.33C57.77 19.06 61.25 15.58 65.52 15.58C69.79 15.58 73.27 19.06 73.27 23.33C73.27 27.6 69.79 31.08 65.52 31.08ZM65.52 15.99C61.47 15.99 58.17 19.28 58.17 23.34C58.17 27.4 61.46 30.69 65.52 30.69C69.58 30.69 72.87 27.4 72.87 23.34C72.87 19.28 69.58 15.99 65.52 15.99ZM65.52 29.31C62.23 29.31 59.55 26.63 59.55 23.34C59.55 20.05 62.23 17.37 65.52 17.37C68.81 17.37 71.49 20.05 71.49 23.34C71.49 26.63 68.81 29.31 65.52 29.31ZM65.52 17.76C62.45 17.76 59.95 20.26 59.95 23.33C59.95 26.4 62.45 28.9 65.52 28.9C68.59 28.9 71.09 26.4 71.09 23.33C71.09 20.26 68.59 17.76 65.52 17.76Z" fill="#171412"/>
</g>
<defs>
<clipPath id="clip0_1_1102">
<rect width="77.89" height="31.08" fill="white"/>
</clipPath>
</defs>
</svg>
