<svg width="62" height="42" viewBox="0 0 62 42" fill="none" xmlns="http://www.w3.org/2000/svg">
<g clip-path="url(#clip0_1_1018)">
<path d="M50.66 40.06C46 40.11 41.85 37.1 40.45 32.66C40.84 32.34 41.2 31.98 41.51 31.59C42.58 35.83 46.39 38.81 50.77 38.82C51.06 38.82 51.35 38.81 51.64 38.78C56.51 38.28 60.24 34.22 60.32 29.32C60.34 26.81 59.36 24.4 57.58 22.63C55.77 20.81 53.31 19.78 50.74 19.76H50.61L51.86 18.47C57.8 19 62.19 24.26 61.65 30.2C61.19 35.31 57.2 39.39 52.1 39.97C51.62 40.03 51.13 40.06 50.65 40.06H50.66Z" fill="#F7F3EE"/>
<path d="M50.55 40.26C45.82 40.26 41.69 37.24 40.26 32.72L40.22 32.59L40.32 32.5C40.7 32.19 41.05 31.84 41.35 31.45L41.6 31.14L41.7 31.53C42.75 35.69 46.48 38.6 50.76 38.61C51.05 38.61 51.33 38.6 51.61 38.57C56.37 38.08 60.03 34.1 60.11 29.31C60.13 26.87 59.16 24.49 57.43 22.76C55.65 20.96 53.27 19.96 50.74 19.95H50.13L51.78 18.26H51.87C54.8 18.53 57.45 19.92 59.33 22.18C61.21 24.44 62.11 27.29 61.84 30.22C61.37 35.4 57.28 39.59 52.12 40.17C51.6 40.23 51.06 40.26 50.54 40.26H50.55ZM40.68 32.72C42.11 37.04 46.11 39.88 50.66 39.85C51.13 39.85 51.61 39.82 52.09 39.76C57.07 39.2 61.01 35.16 61.46 30.17C61.71 27.35 60.85 24.6 59.04 22.42C57.25 20.27 54.73 18.94 51.94 18.66L51.08 19.54C53.59 19.64 55.94 20.67 57.72 22.46C59.52 24.26 60.54 26.75 60.52 29.29C60.43 34.28 56.62 38.43 51.66 38.94C51.37 38.97 51.07 38.98 50.77 38.98C46.43 38.97 42.64 36.11 41.42 31.97C41.19 32.23 40.94 32.47 40.68 32.69V32.72Z" fill="#F7F3EE"/>
<path d="M50.81 29.91C50.6 29.91 50.4 29.83 50.24 29.7C48.98 28.78 47.72 27.85 46.47 26.92L44.83 25.71C45.13 25.37 45.44 25.05 45.78 24.74L46.88 25.55C48.25 26.56 49.62 27.58 50.99 28.59C51.45 28.93 51.45 29.15 51.41 29.34C51.38 29.66 51.12 29.9 50.8 29.9" fill="#F7F3EE"/>
<path d="M50.81 30.11C50.56 30.1 50.32 30.01 50.12 29.86C48.86 28.94 47.61 28.02 46.35 27.08L44.54 25.74L44.68 25.58C44.98 25.23 45.31 24.9 45.65 24.6L45.77 24.49L47 25.4C48.37 26.41 49.74 27.43 51.11 28.44C51.64 28.83 51.66 29.13 51.61 29.39C51.58 29.79 51.23 30.11 50.81 30.11ZM45.13 25.68L46.59 26.76C47.84 27.69 49.1 28.62 50.36 29.54C50.5 29.65 50.65 29.71 50.82 29.71C51.03 29.71 51.21 29.54 51.22 29.33C51.25 29.19 51.28 29.05 50.88 28.76C49.51 27.75 48.14 26.73 46.77 25.72L45.8 25C45.57 25.21 45.34 25.44 45.13 25.68Z" fill="#F7F3EE"/>
<path d="M40.19 11.07C39.47 10.73 38.73 10.38 38.01 10.02C37.68 9.9 37.51 9.53 37.63 9.19C37.63 9.17 37.64 9.15 37.65 9.14C37.75 8.91 37.98 8.76 38.23 8.77C38.35 8.77 38.46 8.79 38.57 8.84C38.68 8.88 38.78 8.93 38.89 8.98L42.08 10.45V10.49C42.15 10.67 42.2 10.85 42.25 11.03C42.13 11.07 42 11.11 41.88 11.15C41.57 11.27 41.26 11.36 40.93 11.43L40.18 11.08" fill="#F7F3EE"/>
<path d="M40.91 11.63L40.1 11.25L40.27 10.89L40.96 11.21C41.25 11.14 41.54 11.06 41.81 10.96L42 10.9L41.91 10.59L38.8 9.16C38.68 9.11 38.59 9.06 38.49 9.02C38.4 8.98 38.29 8.96 38.21 8.96C38.04 8.96 37.89 9.06 37.83 9.21C37.73 9.48 37.84 9.74 38.07 9.82C38.8 10.18 39.53 10.53 40.24 10.86L40.18 11.05L40.06 11.22C39.35 10.88 38.61 10.54 37.9 10.18C37.48 10.03 37.26 9.54 37.42 9.1C37.42 9.08 37.44 9.05 37.45 9.03C37.58 8.73 37.89 8.53 38.22 8.54C38.36 8.54 38.5 8.57 38.63 8.62C38.73 8.66 38.83 8.71 38.94 8.75L42.23 10.26L42.48 11.12L41.96 11.29C41.63 11.41 41.3 11.51 40.97 11.58H40.9L40.91 11.63Z" fill="#F7F3EE"/>
<path d="M27.4 14.06C27.21 14.02 27.03 13.99 26.85 13.96C26.51 13.9 26.19 13.84 25.88 13.77V13C25.88 12.66 25.88 12.3 25.87 11.94C25.85 10.4 24.58 9.17 23.04 9.19C23.02 9.19 23.01 9.19 22.99 9.19C21.73 9.19 20.47 9.18 19.21 9.18H14.22C13.11 9.16 12.1 9.79 11.62 10.79C11.58 10.86 11.55 10.93 11.52 11C11 10.95 10.49 10.86 9.98999 10.73C10.56 8.9 12.25 7.64 14.16 7.61C15.62 7.59 17.12 7.58 18.62 7.58C20.04 7.58 21.5 7.58 22.97 7.6C25.29 7.63 27.2 9.41 27.41 11.72V14.07" fill="#F7F3EE"/>
<path d="M27.36 14.25C27.18 14.21 26.99 14.18 26.81 14.15C26.44 14.08 26.13 14.03 25.82 13.95L25.67 13.91V12.77C25.67 12.5 25.67 12.21 25.66 11.93C25.64 10.5 24.48 9.37 23.07 9.37C23.06 9.37 23.05 9.37 23.03 9.37H22.98C21.72 9.37 20.45 9.36 19.2 9.37H14.21C14.21 9.37 14.19 9.37 14.17 9.37C13.16 9.37 12.23 9.95 11.79 10.86C11.75 10.93 11.72 11 11.69 11.06L11.63 11.2L11.48 11.18C10.95 11.12 10.43 11.03 9.91999 10.9L9.70999 10.85L9.76999 10.65C10.37 8.73 12.12 7.42 14.13 7.39C16.95 7.35 19.91 7.35 22.94 7.39C25.37 7.42 27.36 9.27 27.57 11.69V14.05H27.37L27.33 14.25H27.36ZM26.08 13.6C26.32 13.66 26.58 13.7 26.84 13.75C26.97 13.77 27.09 13.79 27.2 13.81V11.7C27.01 9.5 25.18 7.81 22.96 7.78C19.93 7.75 16.98 7.75 14.16 7.78C12.39 7.81 10.85 8.91 10.24 10.56C10.62 10.65 11.01 10.71 11.39 10.76C11.4 10.73 11.42 10.7 11.44 10.67C11.94 9.63 13.01 8.96 14.18 8.96H19.21C20.47 8.96 21.73 8.96 22.99 8.97H23.04C24.71 8.97 26.05 10.28 26.07 11.92C26.09 12.2 26.09 12.49 26.09 12.78V13.6H26.08Z" fill="#F7F3EE"/>
<path d="M10.97 41.44C5.59001 41.43 1.05001 37.46 0.310012 32.13C0.300012 31.99 0.260012 31.85 0.200012 31.71V29.09C0.340012 28.71 0.450012 28.32 0.520012 27.92C0.580012 27.61 0.660012 27.31 0.760012 27.02C2.06001 23.26 5.33001 20.52 9.26001 19.9C9.95001 19.76 10.65 19.69 11.36 19.69C13.68 19.71 15.93 20.52 17.73 21.99L17.77 22.03C17.96 22.21 18.21 22.32 18.48 22.33C18.78 22.33 19.06 22.19 19.25 21.96C19.95 21.22 20.69 20.48 21.41 19.76C21.58 19.59 23.08 18.18 23.24 18.01C23.56 18.31 23.88 18.62 24.2 18.97C24.04 19.13 22.54 20.54 22.38 20.7C21.66 21.42 20.92 22.16 20.18 22.88C19.7 23.28 19.64 23.99 20.03 24.46C20.03 24.46 20.03 24.47 20.04 24.48C22.07 27.48 22.46 31.3 21.09 34.66C19.76 38.02 16.81 40.48 13.27 41.19C12.51 41.35 11.73 41.43 10.96 41.43L10.97 41.44ZM11.19 21.06C10.65 21.06 10.11 21.1 9.58001 21.19C4.62001 21.99 1.13001 26.51 1.60001 31.52C2.01001 36.41 6.14001 40.15 11.05 40.06C12.58 40.06 14.08 39.71 15.45 39.03C20.12 36.59 21.93 30.81 19.49 26.14C19.34 25.85 19.17 25.57 18.99 25.3L18.49 24.55L17.47 25.59C17.19 25.87 16.93 26.15 16.66 26.42L15.53 27.55C14.42 28.66 13.27 29.81 12.14 30.93C11.98 31.11 11.75 31.22 11.51 31.23C11.21 31.23 10.96 31 10.91 30.7C10.87 30.53 10.86 30.34 11.25 29.95C11.86 29.35 12.46 28.75 13.06 28.14C14.22 26.97 15.42 25.77 16.62 24.6C16.92 24.36 17.1 23.99 17.1 23.6C17.04 23.22 16.8 22.89 16.47 22.71C14.92 21.64 13.08 21.07 11.2 21.06" fill="#F7F3EE"/>
<path d="M10.97 41.64C5.53 41.63 0.86 37.55 0.11 32.16C0.1 32.03 0.07 31.91 0.02 31.8L0 31.72V29.03C0.15 28.66 0.25 28.28 0.33 27.9C0.39 27.59 0.47 27.28 0.58 26.97C1.91 23.13 5.23 20.36 9.24 19.72C9.94 19.58 10.66 19.51 11.37 19.51C13.73 19.53 16.04 20.36 17.87 21.86L17.91 21.9C18.07 22.06 18.28 22.14 18.5 22.15C18.73 22.15 18.96 22.03 19.11 21.85C19.73 21.2 20.37 20.55 20.99 19.93L21.27 19.64C21.36 19.55 21.79 19.14 22.23 18.73C22.63 18.35 23.03 17.97 23.11 17.89L23.25 17.75L23.39 17.88C23.76 18.23 24.07 18.54 24.36 18.85L24.49 18.99L24.35 19.13C24.27 19.2 23.9 19.56 23.51 19.93C23.07 20.34 22.62 20.77 22.54 20.86L22.46 20.94C21.77 21.63 21.05 22.35 20.34 23.04C19.94 23.38 19.88 23.96 20.21 24.35C22.31 27.45 22.71 31.32 21.31 34.75C19.95 38.19 16.97 40.68 13.34 41.4C12.6 41.55 11.83 41.64 11.07 41.64H10.99H10.97ZM0.4 31.68C0.46 31.82 0.5 31.97 0.51 32.12C1.23 37.28 5.68 41.19 10.89 41.24H10.97C11.73 41.24 12.49 41.16 13.24 41C16.74 40.3 19.61 37.91 20.92 34.59C22.27 31.29 21.88 27.55 19.89 24.6C19.42 24.04 19.5 23.2 20.06 22.73C20.76 22.05 21.47 21.34 22.17 20.65L22.25 20.57C22.33 20.49 22.79 20.05 23.23 19.63C23.5 19.37 23.77 19.12 23.93 18.97C23.72 18.75 23.5 18.53 23.25 18.29C23.08 18.45 22.79 18.72 22.5 19C22.07 19.4 21.64 19.82 21.55 19.9L21.26 20.19C20.64 20.81 20 21.46 19.39 22.1C19.17 22.36 18.83 22.52 18.48 22.53C18.15 22.52 17.85 22.39 17.63 22.17L17.6 22.14C15.85 20.71 13.63 19.91 11.36 19.89C10.67 19.89 9.98 19.96 9.3 20.1C5.43 20.71 2.23 23.39 0.95 27.09C0.85 27.38 0.77 27.67 0.72 27.96C0.65 28.36 0.54 28.75 0.4 29.13V31.67V31.68ZM10.89 40.26C5.97 40.26 1.81 36.46 1.4 31.53C0.92 26.44 4.5 21.81 9.55 20.99C10.09 20.9 10.65 20.86 11.19 20.86C13.12 20.86 14.98 21.45 16.57 22.54C16.94 22.74 17.21 23.12 17.28 23.56C17.28 24.05 17.09 24.47 16.73 24.75C15.55 25.91 14.35 27.11 13.19 28.27C12.59 28.88 11.98 29.48 11.38 30.08C11.04 30.42 11.07 30.55 11.09 30.64C11.12 30.86 11.3 31.01 11.5 31.02C11.68 31.01 11.85 30.93 11.98 30.78C13.12 29.66 14.27 28.51 15.38 27.4L16.51 26.27C16.72 26.06 16.93 25.84 17.15 25.62L18.51 24.23L19.15 25.18C19.33 25.46 19.5 25.75 19.66 26.04C20.87 28.35 21.1 30.99 20.33 33.47C19.55 35.96 17.85 37.99 15.54 39.2C14.1 39.91 12.48 40.25 10.89 40.25V40.26ZM11.19 21.26C10.66 21.26 10.13 21.3 9.61 21.39C4.77 22.18 1.34 26.62 1.8 31.5C2.2 36.22 6.18 39.86 10.9 39.86C12.45 39.86 13.99 39.53 15.37 38.85C19.93 36.46 21.71 30.8 19.32 26.23C19.17 25.95 19.01 25.67 18.83 25.41L18.47 24.87L17.45 25.91C17.23 26.13 17.02 26.35 16.81 26.56L15.68 27.69C14.57 28.8 13.42 29.95 12.29 31.07C12.1 31.28 11.82 31.41 11.53 31.43C11.11 31.43 10.78 31.13 10.72 30.73C10.66 30.48 10.7 30.22 11.12 29.8C11.72 29.2 12.33 28.6 12.93 27.99C14.09 26.82 15.29 25.62 16.49 24.45C16.76 24.23 16.91 23.92 16.9 23.59C16.85 23.3 16.66 23.03 16.37 22.87C14.83 21.81 13.05 21.25 11.2 21.25L11.19 21.26Z" fill="#F7F3EE"/>
<path d="M37.43 33.64C36.44 33.64 35.35 33.63 34.01 33.63H29.03C28.76 33.66 28.49 33.59 28.27 33.43C28.14 33.19 28.1 32.91 28.16 32.64C28.78 28.24 27.52 23.78 24.68 20.35C24.58 20.23 24.47 20.11 24.35 20.01L24.28 19.95C23.72 19.11 23 18.4 22.16 17.86C20.98 16.78 19.67 15.85 18.25 15.1C14.66 13.1 10.75 11.73 6.69 11.07C6.19 10.98 5.7 10.89 5.21 10.79L4.74 10.7C4.05 10.57 4.01 10.21 4.07 9.85C4.15 9.55 4.44 9.35 4.76 9.38C4.82 9.38 4.89 9.38 4.95 9.4C5.74 9.54 6.55 9.7 7.33 9.85C7.74 9.93 8.15 10.01 8.56 10.09C8.69 10.11 8.81 10.13 8.92 10.14L9.11 10.16H9.18C9.23 10.16 9.29 10.16 9.34 10.16C9.72 10.18 10.1 10.23 10.47 10.33C10.68 10.38 10.89 10.42 11.11 10.46C11.31 10.49 11.51 10.52 11.7 10.55L11.85 10.57L14.18 11.02C17.79 11.73 21.53 12.45 25.22 13.13C25.43 13.17 25.65 13.22 25.88 13.26C26.23 13.33 26.57 13.4 26.92 13.47C27.32 13.63 27.74 13.76 28.16 13.85C28.3 13.91 28.45 13.96 28.6 13.98C29.04 14.05 29.48 14.14 29.91 14.23C30.18 14.28 30.45 14.34 30.72 14.39C30.84 14.41 30.95 14.42 31.07 14.42C31.28 14.42 31.49 14.39 31.69 14.32C33.15 13.85 34.61 13.39 36.08 12.93L39.49 11.85C39.62 11.81 39.73 11.74 39.84 11.65L39.86 11.63L39.89 11.61C40.08 11.49 40.3 11.4 40.52 11.36C40.68 11.32 40.84 11.27 41.01 11.21L41.05 11.19C42.1 10.8 42.3 10.44 42.05 9.35C42.04 9.28 42.02 9.22 42 9.16C42 9.12 41.98 9.08 41.97 9.05L42.06 8.87L41.59 6.92C41.15 5.1 40.72 3.28 40.29 1.46C40.27 1.38 40.25 1.3 40.23 1.22C40.17 1.07 40.15 0.910001 40.16 0.750001C40.21 0.440001 40.47 0.220001 40.78 0.220001C41 0.220001 41.2 0.310001 41.37 0.450001C42.15 1.09 42.95 1.75 43.71 2.39L52.51 9.75C53.68 10.76 54.38 12.21 54.46 13.75C54.57 15.28 54.05 16.8 53.02 17.94C52.89 18.08 52.77 18.22 52.64 18.36L52.42 18.6L52.39 18.65C52.07 19.11 51.71 19.54 51.32 19.94C51.21 20.06 51.09 20.18 50.98 20.3C50.87 20.42 50.75 20.53 50.62 20.65C50.32 20.91 50.05 21.21 49.83 21.54C49.11 22.16 48.44 22.83 47.82 23.55C47.46 23.95 47.12 24.33 46.76 24.7C46 25.34 45.31 26.05 44.7 26.83L44.5 27.03C44.3 27.24 44.11 27.43 43.91 27.61C43.11 28.32 42.71 29.38 42.83 30.44C42.69 30.57 42.59 30.73 42.52 30.91L42.49 30.99C42.22 31.88 41.59 32.62 40.75 33.03H40.72L40.69 33.06C39.76 33.5 38.73 33.7 37.7 33.64H37.47M28.91 24.57C28.78 24.76 28.75 25 28.81 25.22C29.38 27.19 29.64 29.23 29.58 31.28C29.56 31.56 29.65 31.84 29.84 32.04C30.05 32.24 30.34 32.35 30.63 32.33L40.74 32.3L29.27 23.79L28.91 24.57ZM25.91 19.62C26.13 19.92 26.4 20.18 26.71 20.39L26.81 20.47C29.54 22.52 32.33 24.57 35.03 26.56C36.54 27.67 38.05 28.78 39.56 29.9L39.62 29.95C39.87 30.18 40.19 30.31 40.53 30.32C40.59 30.32 40.64 30.32 40.7 30.31L41.29 30.23L41.33 29.63C41.37 28.65 41.76 27.71 42.43 27C42.65 26.76 42.88 26.52 43.1 26.28L43.64 25.7L43.58 25.35C43.49 24.9 43.2 24.52 42.79 24.31C42.75 24.28 42.71 24.26 42.67 24.23C41.22 23.17 39.78 22.1 38.34 21.03C36.75 19.86 35.16 18.68 33.57 17.51C33.37 17.37 33.18 17.22 32.99 17.07C32.39 16.56 31.73 16.13 31.02 15.79L30.94 15.76L21.78 13.99L21.19 15.28C22.59 16.36 23.9 17.55 25.1 18.85C25.15 18.91 25.2 18.97 25.25 19.03C25.44 19.26 25.65 19.47 25.88 19.66M42.46 4.73L42.48 4.88C42.49 4.98 42.51 5.04 42.52 5.11L43.06 7.33C43.34 8.47 43.62 9.61 43.89 10.76C44.1 11.61 43.95 11.78 43.25 12C42.4 12.27 41.54 12.55 40.69 12.81C39.6 13.16 38.5 13.5 37.41 13.86C37.08 13.97 36.74 14.07 36.41 14.17C35.6 14.39 34.8 14.67 34.03 15L33.58 15.21L33.61 15.7C33.65 16.16 33.92 16.56 34.32 16.77C34.35 16.79 34.38 16.81 34.41 16.83C35.88 17.92 37.35 19.01 38.83 20.1C40.47 21.32 42.12 22.53 43.76 23.75L43.83 23.8C44.09 24.03 44.41 24.16 44.76 24.18H44.86L45.11 24.16L45.29 23.99C45.34 23.94 45.39 23.9 45.44 23.85C45.56 23.74 45.69 23.63 45.82 23.5C46.65 22.64 47.48 21.78 48.3 20.92C49.41 19.76 50.53 18.61 51.64 17.45C52.62 16.53 53.18 15.24 53.16 13.89C53.06 12.56 52.4 11.33 51.35 10.51C50.61 9.87 49.85 9.24 49.11 8.63C48.81 8.38 48.52 8.14 48.22 7.89C47.15 7 46.07 6.11 44.97 5.19L42.12 2.81L42.44 4.74L42.46 4.73Z" fill="#F7F3EE"/>
<path d="M38.02 33.85C37.9 33.85 37.77 33.85 37.65 33.84H37.43C36.44 33.83 35.35 33.82 34.01 33.82H29.03C28.73 33.85 28.41 33.77 28.15 33.58L28.09 33.52C27.93 33.23 27.88 32.9 27.96 32.58C28.57 28.26 27.31 23.84 24.52 20.47C24.42 20.36 24.32 20.25 24.21 20.15L24.14 20.08C23.57 19.23 22.87 18.54 22.05 18.01C20.86 16.92 19.56 16 18.16 15.26C14.58 13.26 10.71 11.91 6.66 11.25C6.22 11.17 5.79 11.09 5.36 11.01L4.7 10.88C3.83 10.71 3.81 10.18 3.87 9.8C3.98 9.38 4.36 9.11 4.78 9.16C4.84 9.16 4.91 9.16 4.98 9.18C5.56 9.28 6.15 9.39 6.73 9.51L8.59 9.87C8.7 9.89 8.8 9.9 8.89 9.91L9.12 9.93H9.24C9.24 9.93 9.3 9.93 9.33 9.93C9.73 9.95 10.13 10.01 10.51 10.1C10.73 10.15 10.93 10.19 11.13 10.22C11.27 10.24 11.42 10.26 11.56 10.29L11.87 10.34L14.21 10.8C17.62 11.47 21.48 12.22 25.25 12.91C25.46 12.95 25.69 13 25.91 13.04L25.99 13.06C26.31 13.12 26.63 13.19 26.95 13.26C27.37 13.43 27.78 13.55 28.19 13.64C28.35 13.71 28.48 13.75 28.62 13.77C29.06 13.84 29.51 13.93 29.94 14.02L30.14 14.06C30.34 14.1 30.55 14.14 30.75 14.18C31.04 14.23 31.34 14.21 31.62 14.12C33.08 13.65 34.55 13.19 36.01 12.73L39.42 11.65C39.52 11.62 39.61 11.56 39.69 11.49L39.73 11.46C39.97 11.3 40.21 11.2 40.46 11.16C40.6 11.12 40.75 11.08 40.92 11.02C41.92 10.65 42.06 10.4 41.84 9.39C41.83 9.33 41.81 9.27 41.79 9.21L41.74 9.02L41.83 8.84L41.38 6.96C40.94 5.14 40.51 3.32 40.08 1.5C40.07 1.44 40.05 1.38 40.03 1.32C39.96 1.12 39.93 0.930004 39.94 0.740004C40 0.320004 40.35 0.0200043 40.76 0.0200043C41.03 0.0200043 41.28 0.130004 41.48 0.300004C42.26 0.940004 43.05 1.6 43.82 2.24L52.62 9.6C53.83 10.64 54.56 12.15 54.64 13.74C54.76 15.32 54.21 16.9 53.14 18.07C53.03 18.19 52.92 18.31 52.81 18.43L52.53 18.76C52.2 19.24 51.83 19.68 51.43 20.08L51.36 20.15C51.27 20.24 51.18 20.34 51.1 20.43C50.99 20.55 50.88 20.66 50.75 20.77C50.43 21.05 50.17 21.33 49.96 21.65L49.92 21.69C49.21 22.3 48.54 22.97 47.94 23.68L47.82 23.81C47.5 24.17 47.19 24.51 46.86 24.84C46.1 25.48 45.42 26.19 44.81 26.96L44.59 27.18C44.39 27.39 44.2 27.58 44 27.77C43.25 28.44 42.87 29.43 42.99 30.43V30.53L42.93 30.6C42.82 30.71 42.73 30.84 42.68 30.98L42.64 31.07C42.37 32 41.69 32.79 40.8 33.21L40.75 33.23C39.88 33.64 38.95 33.85 38.01 33.85H38.02ZM37.43 33.44H37.66C38.66 33.5 39.66 33.3 40.56 32.88L40.71 33.03L40.62 32.85C40.82 32.75 41.01 32.64 41.19 32.5L30.63 32.54C30.3 32.56 29.95 32.44 29.7 32.2C29.46 31.95 29.35 31.61 29.37 31.28C29.43 29.26 29.17 27.24 28.61 25.29C28.53 25.02 28.57 24.73 28.73 24.49L29.19 23.5L41.26 32.45C41.73 32.06 42.08 31.54 42.25 30.95L42.29 30.85C42.35 30.68 42.45 30.52 42.57 30.38C42.47 29.29 42.9 28.2 43.72 27.47C43.91 27.29 44.1 27.1 44.3 26.9L44.5 26.7C45.1 25.93 45.81 25.2 46.58 24.55C46.89 24.24 47.19 23.9 47.51 23.55L47.63 23.42C48.24 22.7 48.91 22.02 49.63 21.4C49.86 21.06 50.13 20.76 50.44 20.49C50.58 20.36 50.68 20.26 50.78 20.15C50.87 20.05 50.96 19.96 51.05 19.86L51.12 19.78C51.51 19.39 51.86 18.96 52.17 18.51L52.2 18.46L52.49 18.14C52.6 18.02 52.71 17.9 52.82 17.78C53.81 16.69 54.32 15.22 54.21 13.74C54.14 12.25 53.46 10.85 52.33 9.88L43.53 2.52C42.77 1.88 41.98 1.22 41.19 0.580004C41.06 0.460004 40.89 0.400004 40.72 0.390004C40.52 0.390004 40.34 0.550004 40.31 0.750004C40.31 0.870004 40.32 1 40.37 1.12L40.39 1.18C40.41 1.25 40.43 1.31 40.44 1.38C40.87 3.2 41.3 5.02 41.74 6.84L42.22 8.86L42.13 9.04V9.06C42.16 9.14 42.18 9.21 42.19 9.28C42.46 10.47 42.21 10.94 41.06 11.35C40.84 11.43 40.67 11.47 40.51 11.52C40.29 11.56 40.11 11.63 39.94 11.74C39.8 11.86 39.66 11.95 39.5 12L36.09 13.08C34.63 13.54 33.17 14 31.7 14.47C31.48 14.54 31.25 14.58 31.02 14.58C30.89 14.58 30.76 14.57 30.63 14.54C30.42 14.5 30.22 14.46 30.01 14.42L29.81 14.38C29.38 14.29 28.93 14.2 28.5 14.13C28.33 14.1 28.17 14.06 28.01 13.98C27.62 13.9 27.19 13.77 26.77 13.6C26.49 13.54 26.17 13.48 25.85 13.42L25.77 13.4C25.55 13.36 25.32 13.31 25.11 13.27C21.35 12.58 17.48 11.83 14.07 11.16L11.44 10.66C11.3 10.64 11.15 10.62 11 10.59C10.79 10.56 10.59 10.51 10.39 10.47C9.99 10.37 9.63 10.32 9.26 10.3H9.2C9.2 10.3 9.14 10.3 9.11 10.3L8.83 10.28C8.69 10.27 8.57 10.25 8.45 10.23L6.59 9.87C6.01 9.76 5.43 9.64 4.85 9.54C4.8 9.54 4.75 9.53 4.7 9.53C4.46 9.5 4.26 9.64 4.2 9.85C4.16 10.12 4.17 10.34 4.72 10.45L5.38 10.58C5.81 10.66 6.23 10.75 6.67 10.82C10.76 11.49 14.67 12.85 18.29 14.88C19.71 15.64 21.04 16.58 22.23 17.67C23.08 18.21 23.81 18.94 24.38 19.8L24.42 19.83C24.54 19.94 24.66 20.06 24.76 20.19C27.63 23.65 28.91 28.18 28.29 32.63C28.24 32.85 28.26 33.07 28.35 33.26C28.52 33.37 28.73 33.42 28.93 33.4H33.93C35.27 33.4 36.36 33.4 37.35 33.41L37.43 33.44ZM29.35 24.1L29.08 24.68C28.99 24.82 28.96 25 29.01 25.17C29.59 27.16 29.85 29.22 29.79 31.29C29.77 31.52 29.85 31.75 30 31.91C30.16 32.06 30.39 32.15 30.63 32.13L40.15 32.1L29.36 24.1H29.35ZM40.54 30.51C40.15 30.5 39.78 30.35 39.49 30.09L39.44 30.05C37.94 28.94 36.43 27.82 34.92 26.71L34.04 26.06C31.63 24.28 29.13 22.44 26.7 20.62L26.6 20.54C26.29 20.33 26.01 20.07 25.79 19.76C25.55 19.57 25.32 19.34 25.13 19.1L24.98 18.93C23.79 17.65 22.48 16.46 21.1 15.39L20.97 15.29L21.69 13.71L31.12 15.56C31.85 15.91 32.53 16.35 33.14 16.87C33.34 17.03 33.52 17.17 33.71 17.31C35.3 18.48 36.89 19.65 38.48 20.83C39.92 21.9 41.36 22.97 42.81 24.03C42.84 24.05 42.86 24.07 42.89 24.08C43.37 24.33 43.7 24.76 43.8 25.27L43.88 25.73L43.27 26.38C43.05 26.62 42.82 26.86 42.6 27.1C41.96 27.78 41.59 28.67 41.55 29.61L41.5 30.38L40.75 30.48C40.69 30.48 40.62 30.49 40.55 30.49L40.54 30.51ZM26.07 19.5C26.28 19.78 26.53 20.02 26.82 20.22L26.93 20.31C29.36 22.13 31.86 23.97 34.27 25.75L35.15 26.4C36.66 27.51 38.17 28.62 39.68 29.74L39.75 29.79C39.98 29.99 40.26 30.11 40.55 30.12C40.59 30.12 40.64 30.12 40.69 30.11L41.12 30.05L41.15 29.61C41.19 28.58 41.6 27.6 42.3 26.85C42.52 26.61 42.75 26.37 42.97 26.13L43.45 25.62L43.41 25.36C43.33 24.98 43.08 24.65 42.72 24.46L42.68 24.43C42.68 24.43 42.61 24.38 42.57 24.36C41.12 23.3 39.68 22.23 38.24 21.16C36.65 19.99 35.06 18.81 33.47 17.64C33.28 17.5 33.1 17.36 32.91 17.22C32.28 16.69 31.64 16.27 30.94 15.93L30.87 15.9L21.91 14.17L21.45 15.17C22.81 16.23 24.09 17.4 25.26 18.66L25.42 18.84C25.61 19.07 25.81 19.27 26.03 19.45L25.88 19.64L26.08 19.49L26.07 19.5ZM44.76 24.36C44.36 24.34 43.99 24.19 43.7 23.93L43.64 23.89L34.29 16.98C34.29 16.98 34.24 16.95 34.22 16.93C33.75 16.69 33.45 16.23 33.41 15.7L33.38 15.06L33.95 14.8C34.73 14.46 35.54 14.18 36.36 13.96L36.44 13.94C36.74 13.85 37.05 13.76 37.35 13.66C38.44 13.31 39.54 12.96 40.63 12.61C41.49 12.34 42.34 12.07 43.19 11.8C43.78 11.61 43.88 11.55 43.7 10.79L42.33 5.15C42.31 5.08 42.3 5.01 42.29 4.91L41.86 2.31L49.26 8.47C49.94 9.02 50.73 9.68 51.51 10.36C52.59 11.21 53.28 12.5 53.39 13.88C53.4 15.29 52.82 16.64 51.8 17.6L48.46 21.06C47.63 21.92 46.81 22.78 45.98 23.64C45.85 23.77 45.72 23.89 45.59 24.01C45.55 24.05 45.51 24.08 45.48 24.11L45.21 24.36L44.77 24.39L44.76 24.36ZM33.79 15.31L33.81 15.67C33.84 16.05 34.07 16.39 34.42 16.57C34.48 16.6 34.51 16.63 34.54 16.65L43.96 23.62C44.19 23.83 44.48 23.94 44.77 23.95H45.03L45.2 23.78C45.24 23.74 45.28 23.71 45.32 23.67C45.44 23.57 45.56 23.46 45.68 23.33C46.51 22.47 47.34 21.61 48.16 20.76L51.5 17.29C52.45 16.4 52.98 15.16 52.97 13.87C52.87 12.61 52.24 11.43 51.24 10.64C50.46 9.96 49.67 9.31 48.99 8.75L42.42 3.28L42.67 4.83C42.68 4.92 42.69 4.98 42.71 5.04L44.08 10.68C44.32 11.65 44.08 11.91 43.31 12.16C42.46 12.43 41.6 12.71 40.75 12.97C39.66 13.31 38.56 13.66 37.47 14.02C37.16 14.12 36.86 14.21 36.55 14.3L36.46 14.33C35.65 14.55 34.86 14.82 34.1 15.15L33.78 15.3L33.79 15.31Z" fill="#F7F3EE"/>
</g>
<defs>
<clipPath id="clip0_1_1018">
<rect width="61.9" height="41.64" fill="white"/>
</clipPath>
</defs>
</svg>
