<?xml version="1.0" encoding="UTF-8"?>
<svg id="Capa_1" xmlns="http://www.w3.org/2000/svg" version="1.1" viewBox="0 0 1416.3 360">
  <!-- Generator: Adobe Illustrator 30.0.0, SVG Export Plug-In . SVG Version: 2.1.1 Build 123)  -->
  <defs>
    <style>
      .st0 {
        fill: #b00064;
      }
    </style>
  </defs>
  <path class="st0" d="M5.6,194.2c.2,1.4,1.3,2.4,2.7,2.4h151.8c2,0,3.3,2.2,2.4,4l-33,63c-2,3.9-7.6,3.9-9.6,0l-27.1-51.9c-.5-.9-1.4-1.5-2.4-1.5H12.1c-1.8,0-3.1,1.7-2.6,3.5,14.5,49.9,60.6,86.4,115.3,86.4s117.4-53.8,120-120.1c.3-8.1-.9-14.1-.9-14.1-.2-1.4-1.3-2.4-2.7-2.4H89.4c-2,0-3.3-2.2-2.4-4l33-63.1c2-3.9,7.6-3.9,9.6,0l27.1,51.9c.5.9,1.4,1.5,2.4,1.5h78.3c1.8,0,3.1-1.7,2.6-3.4-14.5-49.9-60.6-86.4-115.3-86.4S4.7,113.8,4.7,180c0,0-.8,6.6.9,14.2"/>
  <path class="st0" d="M316,299.8c-7.7,0-14.5-.7-20.3-2.2-5.8-1.5-11.3-3.3-16.3-5.5v-23.9h2.3c5,4.3,10.6,7.6,16.7,9.9,6.1,2.3,12,3.4,17.7,3.4s3.3-.2,5.7-.5c2.4-.3,4.3-.8,5.7-1.5,1.8-.8,3.2-1.8,4.5-3.2,1.3-1.4,1.8-3.2,1.8-5.4s-1-4.6-3-6.1-4.4-2.7-7.1-3.4c-3.4-.9-7.1-1.8-11-2.6-3.9-.8-7.5-1.8-10.9-3-7.8-2.7-13.4-6.4-16.8-11.1-3.4-4.7-5.1-10.5-5.1-17.4s4-17,12-22.9c8-5.8,17.9-8.8,29.9-8.8s11.9.6,17.9,1.8c5.9,1.2,11.2,2.9,15.9,4.9v23h-2.2c-3.7-3.2-8.3-5.9-13.7-8.1-5.4-2.2-10.9-3.3-16.6-3.3s-4.2.2-5.9.5c-1.8.3-3.6.9-5.5,1.8-1.6.7-2.9,1.8-4.1,3.2-1.1,1.4-1.7,3-1.7,4.8,0,2.6.9,4.6,2.7,6.1,1.8,1.5,5.3,2.9,10.6,4.1,3.4.8,6.6,1.5,9.8,2.2,3.1.7,6.5,1.7,10,3,7,2.5,12.2,5.9,15.6,10.2,3.4,4.3,5.1,9.9,5.1,16.9,0,10-3.9,18-11.8,24.1-7.9,6.1-18.5,9.1-31.9,9.1h0Z"/>
  <polygon class="st0" points="372.4 298 372.4 197.4 440.5 197.4 440.5 216.6 397.6 216.6 397.6 234.2 437.1 234.2 437.1 253.4 397.6 253.4 397.6 278.8 440.5 278.8 440.5 298 372.4 298"/>
  <path class="st0" d="M541.7,292.2c-4.4,1.8-10.2,3.6-17.2,5.3-7.1,1.7-14,2.6-20.9,2.6-15.8,0-28.4-4.6-37.8-13.7-9.4-9.1-14.1-22.1-14.1-38.8s4.7-28.4,14.1-37.9c9.4-9.5,22.2-14.3,38.6-14.3s15.3.8,20.5,2.4c5.3,1.6,10.7,3.8,16.4,6.5v23.6h-2.3c-1.2-1-3-2.3-5.2-4-2.2-1.7-4.5-3.2-6.7-4.4-2.5-1.4-5.4-2.7-8.8-3.7-3.4-1-6.8-1.5-10.5-1.5s-8.3.7-11.8,2c-3.6,1.3-6.7,3.4-9.5,6.2-2.7,2.7-4.8,6.1-6.3,10.3-1.5,4.2-2.3,9-2.3,14.5,0,11.8,3,20.4,8.9,26,5.9,5.6,14,8.4,24.2,8.4h3.2c1.2,0,2.3,0,3.2-.2v-19.7h-19.5v-18.9h44v49.5l-.2-.2Z"/>
  <path class="st0" d="M601.3,300.1c-13.5,0-23.9-3.3-31.2-9.8-7.3-6.5-10.9-16.1-10.9-28.7v-64.3h25.3v62.8c0,7,1.3,12.2,4,15.6,2.6,3.4,6.9,5.1,12.9,5.1s10.1-1.6,12.8-4.9c2.7-3.3,4.1-8.6,4.1-15.8v-62.8h25.3v64.2c0,12.4-3.5,21.9-10.6,28.6-7.1,6.6-17.6,10-31.5,10h-.2Z"/>
  <path class="st0" d="M756,298h-30.8l-28-36.9h-9.1v36.9h-25.1v-100.6h40.5c5.6,0,10.5.4,14.6,1,4.1.7,8,2.1,11.5,4.4,3.6,2.3,6.5,5.2,8.6,8.8,2.1,3.5,3.2,8,3.2,13.5s-1.7,14-5.2,18.8c-3.5,4.8-8.1,8.6-13.9,11.5l33.9,42.8-.2-.2ZM715.3,228.1c0-2.5-.5-4.7-1.5-6.5-1-1.8-2.6-3.2-4.8-4.2-1.6-.7-3.3-1.1-5.3-1.3-2-.2-4.4-.3-7.2-.3h-8.4v27.1h7.2c3.5,0,6.5-.2,9-.6,2.5-.4,4.5-1.3,6.3-2.7,1.6-1.3,2.8-2.8,3.6-4.5.8-1.8,1.2-4.1,1.2-6.9h-.1Z"/>
  <path class="st0" d="M854.9,247.7c0,16.3-4.4,29.1-13,38.4-8.7,9.3-20.6,14-35.8,14s-27.1-4.7-35.8-14.2c-8.6-9.4-13-22.2-13-38.2s4.3-29,13-38.4c8.6-9.4,20.6-14.1,35.8-14.1s27.1,4.7,35.8,14c8.7,9.4,13,22.2,13,38.4h0ZM828.9,247.6c0-6-.6-11.1-1.9-15.3-1.2-4.2-2.9-7.7-5-10.4-2.2-2.7-4.6-4.7-7.3-5.9-2.7-1.2-5.6-1.8-8.5-1.8s-5.9.6-8.4,1.7c-2.5,1.1-5,3.1-7.3,5.9-2.1,2.6-3.8,6.1-5,10.4-1.2,4.3-1.9,9.5-1.9,15.5s.6,11.3,1.8,15.4c1.2,4.1,2.9,7.5,5,10.2,2.2,2.8,4.6,4.8,7.4,6,2.7,1.2,5.6,1.8,8.5,1.8s5.9-.6,8.6-1.9c2.8-1.3,5.2-3.3,7.2-6,2.2-2.9,3.8-6.3,5-10.2,1.2-3.9,1.8-9,1.8-15.3h0Z"/>
  <path class="st0" d="M901,299.8c-7.7,0-14.5-.7-20.3-2.2-5.8-1.5-11.3-3.3-16.3-5.5v-23.9h2.3c5,4.3,10.6,7.6,16.7,9.9,6.1,2.3,12,3.4,17.7,3.4s3.3-.2,5.7-.5c2.4-.3,4.3-.8,5.7-1.5,1.8-.8,3.2-1.8,4.5-3.2,1.2-1.4,1.8-3.2,1.8-5.4s-1-4.6-3-6.1c-2-1.6-4.4-2.7-7.1-3.4-3.4-.9-7.1-1.8-11-2.6-3.9-.8-7.5-1.8-10.9-3-7.8-2.7-13.4-6.4-16.8-11.1-3.4-4.7-5.1-10.5-5.1-17.4s4-17,12-22.9c8-5.8,17.9-8.8,29.9-8.8s11.9.6,17.9,1.8c5.9,1.2,11.2,2.9,15.9,4.9v23h-2.2c-3.7-3.2-8.3-5.9-13.7-8.1-5.4-2.2-10.9-3.3-16.6-3.3s-4.2.2-5.9.5c-1.7.3-3.6.9-5.5,1.8-1.6.7-2.9,1.8-4.1,3.2-1.1,1.4-1.7,3-1.7,4.8,0,2.6.9,4.6,2.7,6.1,1.8,1.5,5.3,2.9,10.6,4.1,3.4.8,6.6,1.5,9.8,2.2,3.1.7,6.5,1.7,10,3,7,2.5,12.2,5.9,15.6,10.2,3.4,4.3,5.1,9.9,5.1,16.9,0,10-3.9,18-11.8,24.1-7.9,6.1-18.5,9.1-31.9,9.1h0Z"/>
  <path class="st0" d="M316,164.6c-7.7,0-14.5-.7-20.3-2.2-5.8-1.5-11.3-3.3-16.3-5.5v-23.9h2.3c5,4.3,10.6,7.6,16.7,9.9,6.1,2.3,12,3.4,17.7,3.4s3.3-.2,5.7-.5c2.4-.3,4.3-.8,5.7-1.5,1.8-.8,3.2-1.8,4.5-3.2,1.3-1.4,1.8-3.2,1.8-5.4s-1-4.6-3-6.1c-2-1.5-4.4-2.7-7.1-3.4-3.4-.9-7.1-1.8-11-2.6-3.9-.8-7.5-1.8-10.9-3-7.8-2.7-13.4-6.4-16.8-11.1-3.4-4.6-5.1-10.5-5.1-17.4s4-17,12-22.9c8-5.8,17.9-8.8,29.9-8.8s11.9.6,17.9,1.8c5.9,1.2,11.2,2.9,15.9,4.9v23h-2.2c-3.7-3.2-8.3-5.9-13.7-8.1-5.4-2.2-10.9-3.3-16.6-3.3s-4.2.2-5.9.5c-1.8.3-3.6.9-5.5,1.8-1.6.7-2.9,1.8-4.1,3.2-1.1,1.4-1.7,3-1.7,4.8,0,2.6.9,4.6,2.7,6.1,1.8,1.5,5.3,2.9,10.6,4.1,3.4.8,6.6,1.5,9.8,2.2,3.1.7,6.5,1.7,10,3,7,2.5,12.2,5.9,15.6,10.2,3.4,4.3,5.1,9.9,5.1,16.9,0,10-3.9,18-11.8,24.1-7.9,6.1-18.5,9.1-31.9,9.1h0Z"/>
  <path class="st0" d="M377.6,162.8l34-100.6h27.6l34,100.6h-26l-6.3-20.5h-31.6l-6.3,20.5h-25.4ZM435.3,124l-10.3-33.2-10.3,33.2h20.6Z"/>
  <polygon class="st0" points="585.2 162.8 561 162.8 522.2 92.7 522.2 162.8 499.1 162.8 499.1 62.1 530.1 62.1 562.2 119.8 562.2 62.1 585.2 62.1 585.2 162.7 585.2 162.8"/>
  <path class="st0" d="M664.9,164.7c-15.1,0-27.1-4.6-36-13.7-8.9-9.1-13.3-22-13.3-38.5s4.4-28.7,13.4-38.1c8.9-9.5,20.9-14.2,36-14.2s7.6.2,10.8.7c3.2.4,6.3,1.1,9.2,1.9,2.3.7,4.8,1.6,7.5,2.8,2.7,1.2,4.9,2.2,6.6,3v24h-2.6c-1.2-1.1-2.7-2.4-4.6-3.9-1.8-1.5-3.9-3-6.3-4.4-2.4-1.4-4.9-2.7-7.7-3.7-2.8-1-5.8-1.5-8.8-1.5s-7,.6-10,1.7c-3,1.2-5.9,3.1-8.7,6-2.5,2.6-4.6,6-6.2,10.4-1.6,4.4-2.4,9.5-2.4,15.5s.8,11.5,2.5,15.8c1.7,4.3,3.8,7.7,6.6,10.3,2.6,2.5,5.5,4.4,8.8,5.5,3.2,1.1,6.4,1.7,9.6,1.7s6.5-.6,9.5-1.7c3-1.1,5.6-2.3,7.6-3.7,2.3-1.4,4.2-2.8,5.9-4.3,1.7-1.4,3.2-2.7,4.5-3.8h2.3v23.7c-1.8.9-4,1.8-6.4,2.9-2.4,1.1-4.9,2-7.5,2.8-3.2,1-6.1,1.7-8.9,2.2-2.8.5-6.5.7-11.4.7h0Z"/>
  <path class="st0" d="M821.4,112.5c0,16.3-4.4,29.1-13,38.4-8.7,9.3-20.6,14-35.8,14s-27.1-4.7-35.8-14.2c-8.6-9.4-13-22.2-13-38.2s4.3-29,13-38.4c8.6-9.4,20.6-14.1,35.8-14.1s27.1,4.7,35.8,14c8.7,9.4,13,22.2,13,38.4h0ZM795.4,112.4c0-6-.6-11.1-1.9-15.3-1.3-4.2-2.9-7.7-5-10.4-2.2-2.7-4.6-4.7-7.3-5.9-2.7-1.2-5.6-1.8-8.5-1.8s-5.9.6-8.4,1.7c-2.5,1.1-5,3.1-7.3,5.9-2.1,2.6-3.8,6.1-5,10.4-1.3,4.3-1.9,9.5-1.9,15.5s.6,11.3,1.8,15.4c1.2,4.1,2.9,7.5,5,10.2,2.2,2.8,4.6,4.8,7.4,6,2.7,1.2,5.6,1.8,8.5,1.8s5.9-.6,8.6-1.9c2.8-1.3,5.2-3.3,7.2-6,2.2-2.9,3.8-6.3,5-10.2,1.2-3.9,1.8-9,1.8-15.3h0Z"/>
  <path class="st0" d="M945.3,162.8h-30.8l-28-36.9h-9.1v36.9h-25.1V62.1h40.5c5.6,0,10.5.4,14.6,1,4.1.7,8,2.1,11.5,4.4,3.6,2.3,6.5,5.2,8.6,8.8,2.1,3.5,3.2,8,3.2,13.5s-1.7,14-5.2,18.8c-3.5,4.8-8.1,8.6-13.9,11.5l33.9,42.8h-.2ZM904.6,92.9c0-2.5-.5-4.7-1.5-6.5-1-1.8-2.6-3.2-4.8-4.2-1.6-.7-3.3-1.1-5.3-1.3-2-.2-4.4-.3-7.2-.3h-8.4v27.1h7.2c3.5,0,6.5-.2,9-.6,2.5-.4,4.5-1.3,6.3-2.7,1.6-1.3,2.8-2.8,3.6-4.5.8-1.8,1.2-4.1,1.2-6.9h-.1Z"/>
  <path class="st0" d="M1294,245.7c28.8,0,52.3,23.5,52.3,52.3h61.3c0-62.6-50.9-113.5-113.5-113.5s-113.5,50.9-113.5,113.5h61.3c0-28.8,23.5-52.3,52.3-52.3"/>
  <path class="st0" d="M1128.1,245.7c-51.2,0-92.8-41.6-92.8-92.8s41.6-92.8,92.8-92.8,92.8,41.6,92.8,92.8-41.6,92.8-92.8,92.8M1128.1,121.4c-17.4,0-31.6,14.2-31.6,31.6s14.2,31.6,31.6,31.6,31.6-14.2,31.6-31.6-14.2-31.6-31.6-31.6"/>
  <path class="st0" d="M1128.1,245.7c28.8,0,52.3,23.5,52.3,52.3h61.3c0-62.6-50.9-113.5-113.5-113.5s-113.5,50.9-113.5,113.5h61.3c0-28.8,23.5-52.3,52.3-52.3"/>
  <path class="st0" d="M1241.8,94.8c0-5.7,4-9.2,7.3-10.7-3.4-2.1-5.5-4.8-5.5-9.4,0-7.6,5.6-12.6,15.6-12.6s15.3,4.8,15.3,12.5-2.6,7.7-5.7,9c3.2,1.2,7.3,5,7.3,10.9,0,9.2-7.4,14-17.6,14s-16.7-4.8-16.7-13.7M1266.4,94.4c0-4.4-3.1-6.5-7.4-6.5s-7.4,2.6-7.4,6.4,3,6.6,7.5,6.6,7.3-2,7.3-6.6M1252.9,75.1c0,3,2.2,5.1,6.3,5.1s6.1-1.5,6.1-5-2.2-5.5-6.2-5.5-6.2,1.9-6.2,5.5"/>
  <path class="st0" d="M1315.9,85c0,12.3-3.9,23.5-17.2,23.5s-17.2-10.8-17.2-23.2,4.5-23.2,17.4-23.2,17,10.2,17,22.9M1291.5,85.2c0,8.2.9,15.6,7.3,15.6s7-6.9,7-15.7-1.1-15.2-6.9-15.2-7.4,5.6-7.4,15.3"/>
  <path class="st0" d="M1253.5,152l-3.7,10.8h-10l15.9-46.9h12.7l16.6,46.9h-10.7l-3.9-10.8h-17.1ZM1268.4,143.7c-3.3-9.9-5.5-16.2-6.6-20.4h0c-1.2,4.6-3.5,12-6.2,20.4h12.8Z"/>
  <path class="st0" d="M1289.7,136.5c0-3,0-6.3,0-8.9h9.4c.2.9.3,3.4.4,4.5,1.2-2.2,4-5.3,10.2-5.3s11.7,4.8,11.7,13.6v22.4h-9.8v-21.3c0-4-1.3-6.8-5.6-6.8s-6.5,2.3-6.5,8.5v19.6h-9.8v-26.3ZM1293.6,122.2v-2.3c0-5.5,2.6-7.4,6.3-7.4s7,2.8,9.2,2.8,1.7-.5,1.7-2.4v-.6h6.1v1.8c0,6.4-2.9,8.2-6.7,8.2s-6.7-2.8-8.9-2.8-1.5.4-1.5,1.6v1h-6.3Z"/>
  <path class="st0" d="M1361.6,145.2c0,10.7-6.4,18.5-17.5,18.5s-17.3-7.8-17.3-18.3,6.6-18.5,17.8-18.5,17.1,7.3,17.1,18.4M1336.6,145.2c0,6.8,2.9,10.8,7.6,10.8s7.4-4,7.4-10.7-2.7-10.9-7.6-10.9-7.5,3.4-7.5,10.8"/>
  <path class="st0" d="M1374.3,152.2c.7,2.8,3,4.4,6.7,4.4s4.9-1.3,4.9-3.4-1.5-3.1-6.6-4.4c-11.5-2.8-13.4-6.4-13.4-11.4s3.7-10.7,14.3-10.7,14.3,5.8,14.6,10.6h-9.3c-.3-1.3-1.2-3.8-5.8-3.8s-4.3,1.4-4.3,3,1.1,2.6,6.8,3.9c11.7,2.7,13.4,6.8,13.4,11.9s-4.4,11.1-15.2,11.1-15.1-5.2-15.9-11.4h9.6Z"/>
</svg>