<svg xmlns="http://www.w3.org/2000/svg" viewBox="0 0 72 44" role="img" aria-label="Bitcoin">
  <rect width="72" height="44" rx="6" fill="#ffffff"/>
  <circle cx="36" cy="22" r="15" fill="#f7931a"/>
  <g transform="translate(1 0)">
    <path fill="#ffffff" d="M32.8 11.2h3.1v3.1h1.9v-3.1h3.1v3.4c3.2.7 5.1 2.5 5.1 5 0 1.9-1 3.3-2.8 4.1 2.2.8 3.4 2.5 3.4 4.7 0 3.4-2.7 5.6-7.2 5.8v3.4h-3.1v-3.4h-1.9v3.4h-3.1v-3.4h-4.1l.6-3.4h2.6V17.7h-2.6v-3.4h5v-3.1Zm1.9 6.5v4.6h3.4c2.2 0 3.3-.8 3.3-2.3 0-1.5-1.1-2.3-3.4-2.3h-3.3Zm0 7.8v5.3h4c2.4 0 3.6-.9 3.6-2.7 0-1.7-1.2-2.6-3.7-2.6h-3.9Z"/>
  </g>
</svg>
