<svg xmlns="http://www.w3.org/2000/svg" viewBox="0 0 96 96" role="img" aria-label="Foto de perfil">
  <defs>
    <linearGradient id="sky" x1="0" y1="0" x2="1" y2="1">
      <stop offset="0" stop-color="#1f2f46"/>
      <stop offset="0.55" stop-color="#455a47"/>
      <stop offset="1" stop-color="#d7a438"/>
    </linearGradient>
    <radialGradient id="light" cx="66%" cy="58%" r="38%">
      <stop offset="0" stop-color="#fff3b5"/>
      <stop offset="0.42" stop-color="#d0a235"/>
      <stop offset="1" stop-color="#3a2b1d"/>
    </radialGradient>
  </defs>
  <rect width="96" height="96" fill="url(#sky)"/>
  <circle cx="70" cy="23" r="11" fill="#f6d47a" opacity=".85"/>
  <path d="M0 62c19-12 37-12 54-4 15 7 29 9 42 4v34H0Z" fill="#17212f" opacity=".88"/>
  <path d="M14 54h41c6 0 14 6 18 14H8c1-6 3-11 6-14Z" fill="#0f1724"/>
  <path d="M22 48h27c6 0 10 3 15 10H16c2-5 3-8 6-10Z" fill="#283c50"/>
  <circle cx="25" cy="69" r="7" fill="#05070b"/>
  <circle cx="62" cy="69" r="7" fill="#05070b"/>
  <path d="M66 60h17c3 0 5 3 3 6H70Z" fill="url(#light)"/>
  <path d="M11 61h10" stroke="#e9d180" stroke-width="3" stroke-linecap="round"/>
</svg>
