<svg xmlns="http://www.w3.org/2000/svg" viewBox="0 0 96 96" role="img" aria-label="Foto de perfil">
  <defs>
    <linearGradient id="bg" x1="0" y1="0" x2="1" y2="1">
      <stop offset="0" stop-color="#0d1b31"/>
      <stop offset="0.62" stop-color="#2d4b73"/>
      <stop offset="1" stop-color="#edf3f7"/>
    </linearGradient>
    <linearGradient id="shirt" x1="0" y1="0" x2="0" y2="1">
      <stop offset="0" stop-color="#253655"/>
      <stop offset="1" stop-color="#101723"/>
    </linearGradient>
  </defs>
  <rect width="96" height="96" fill="url(#bg)"/>
  <circle cx="69" cy="28" r="18" fill="#edf3f7" opacity=".42"/>
  <circle cx="43" cy="36" r="16" fill="#b88669"/>
  <path d="M26 36c4-16 23-21 35-8 0 8-4 13-10 15-5-7-14-5-25-7Z" fill="#182337"/>
  <path d="M21 96c2-24 15-36 31-36s29 12 32 36Z" fill="url(#shirt)"/>
  <path d="M39 57h15v14c-4 4-10 4-15 0Z" fill="#a9745d"/>
  <circle cx="36" cy="40" r="2" fill="#1c1c1c"/>
  <circle cx="49" cy="40" r="2" fill="#1c1c1c"/>
  <path d="M36 49c5 4 12 3 16-1" stroke="#6e3f34" stroke-width="2" stroke-linecap="round"/>
  <path d="M64 63h21v13H64z" fill="#ffffff" opacity=".72"/>
  <path d="M69 68h11" stroke="#d44" stroke-width="2" stroke-linecap="round"/>
</svg>
